<svg xmlns="http://www.w3.org/2000/svg" width="72" height="72" viewBox="0 0 72 72" fill="none"><g clip-path="url(#clip0_1_3754)"><path d="M25.886 28.8879C27.603 26.6749 27.1555 23.5062 25.5706 21.1513C23.9119 18.6869 19.268 11.6834 17.0523 10.2136C15.2038 8.9871 12.4653 9.02943 10.487 10.228C9.87794 10.5987 7.89358 12.4916 6.20312 14.1736L20.3009 33.7731C22.552 31.8314 25.7514 29.0616 25.886 28.8879Z" fill="#01AA90"></path><path d="M61.7974 61.538C62.9984 59.5627 63.0409 56.8241 61.8144 54.9756C60.3447 52.7598 53.5655 48.3233 50.8768 46.4575C48.5447 44.8387 45.3507 44.4224 43.1373 46.1392C42.9637 46.2739 40.1936 49.4735 38.252 51.7245L57.8545 65.8247C59.5361 64.1341 61.4284 62.1489 61.7974 61.538Z" fill="#01AA90"></path><path d="M52.3105 32.3438C59.3004 32.3438 64.9668 26.6774 64.9668 19.6875C64.9668 12.6976 59.3004 7.03125 52.3105 7.03125C45.3207 7.03125 39.6543 12.6976 39.6543 19.6875C39.6543 26.6774 45.3207 32.3438 52.3105 32.3438Z" fill="#01AA90"></path><path d="M52.976 46.1921C52.4833 45.8557 52.0428 45.5552 51.6781 45.3021C48.8548 43.3422 45.0005 42.9139 42.2751 45.0277C42.1459 45.1279 41.909 45.3115 35.8855 52.3156C29.9236 50.3806 21.6467 42.1034 19.7096 36.139C26.7138 30.1154 26.8972 29.8786 26.997 29.7498C28.9367 27.2499 28.8322 23.4788 26.737 20.366L26.4812 19.9855C23.3622 15.3428 19.8949 10.412 17.8297 9.04194C15.4753 7.47959 12.1468 7.57817 9.75557 9.02675C8.44185 9.82648 2.97589 15.3902 2.48736 16.0106C2.21919 16.3542 1.92149 16.6204 1.62097 17.2099C-1.90393 24.1804 0.98352 37.0651 4.03916 44.1983C7.90255 53.2288 18.7961 64.1222 27.826 67.9856C32.4882 69.9837 40.1044 71.9999 46.6103 71.9999C49.9618 71.9999 52.7224 71.4628 54.8091 70.4067C56.4035 69.6101 62.4368 63.1982 62.9986 62.2685C64.5026 59.7948 64.4974 56.4762 62.9859 54.1982C61.6747 52.2214 57.322 49.1592 52.976 46.1921ZM60.5936 60.8102C60.1169 61.5849 54.3836 67.4753 53.5453 67.8942C47.5677 70.9195 35.0917 68.0397 28.933 65.4004C20.61 61.8392 10.1856 51.4148 6.62469 43.0915C3.77971 36.4497 1.12513 24.4228 4.12888 18.4831C4.24714 18.2512 4.39213 18.1421 4.70108 17.7455C5.30268 16.9898 10.4131 11.9269 11.2155 11.4307C12.7717 10.4881 14.9217 10.4876 16.2749 11.3856C18.2378 12.6878 23.0882 19.9782 24.404 21.9367C25.569 23.6676 26.1412 26.1917 24.8203 27.9667C24.2357 28.5222 19.8807 32.2843 17.1987 34.5889C16.8012 34.9306 16.6266 35.4648 16.7456 35.9751C18.4535 43.2912 28.7373 53.5749 36.0502 55.2797C36.5605 55.3987 37.0945 55.2242 37.4359 54.8266C39.7408 52.1446 43.5029 47.7893 44.0584 47.205C45.7793 45.9235 48.2981 46.3794 50.0747 47.6127C52.0845 49.0071 59.3429 53.7939 60.6423 55.7531C61.5424 57.1098 61.5224 59.2826 60.5936 60.8102Z" fill="#322153"></path><path d="M57.9353 18.2812H53.7166V14.0625C53.7166 13.286 53.087 12.6562 52.3103 12.6562C51.5336 12.6562 50.9041 13.286 50.9041 14.0625V18.2812H46.6853C45.9086 18.2812 45.2791 18.9108 45.2791 19.6875C45.2791 20.4642 45.9086 21.0938 46.6853 21.0938H50.9041V25.3125C50.9041 26.0892 51.5336 26.7188 52.3103 26.7188C53.087 26.7188 53.7166 26.0892 53.7166 25.3125V21.0938H57.9353C58.712 21.0938 59.3416 20.4642 59.3416 19.6875C59.3416 18.9108 58.712 18.2812 57.9353 18.2812Z" fill="#322153"></path><path d="M52.3103 0C41.4546 0 32.6228 8.83181 32.6228 19.6875C32.6228 24.7747 34.6032 29.662 38.102 33.3134L34.4409 36.9744C34.0389 37.3766 33.9185 37.9814 34.1362 38.5069C34.3539 39.0323 34.8666 39.375 35.4353 39.375H52.3103C63.166 39.375 71.9978 30.5432 71.9978 19.6875C71.9978 8.83181 63.166 0 52.3103 0ZM52.3103 36.5625H38.8303L41.1008 34.2921C41.6701 33.7226 41.6466 32.7904 41.0455 32.2509C37.4801 29.0519 35.4353 24.4727 35.4353 19.6875C35.4353 10.3826 43.0054 2.8125 52.3103 2.8125C61.6153 2.8125 69.1853 10.3826 69.1853 19.6875C69.1853 28.9924 61.6153 36.5625 52.3103 36.5625Z" fill="#322153"></path></g><defs><clipPath id="clip0_1_3754"><rect width="72" height="72" fill="white"></rect></clipPath></defs></svg>