<svg xmlns="http://www.w3.org/2000/svg" width="72" height="72" viewBox="0 0 72 72" fill="none"><g clip-path="url(#clip0_1_3768)"><path fill-rule="evenodd" clip-rule="evenodd" d="M35.316 59.4616C26.9295 59.4616 28.9036 47.8396 28.9039 42.3283C28.9042 38.8479 25.8431 35.6955 22.3626 35.6955C18.011 35.6955 13.6595 35.6901 9.30769 35.6901C6.00806 35.6901 3.4148 34.993 1.49512 33.5002C1.4362 34.3259 1.40625 35.1596 1.40625 36.0003C1.40625 55.1059 16.8944 70.594 36 70.594C39.057 70.594 42.0214 70.1975 44.8446 69.453C45.0447 64.86 44.811 59.4616 39.5347 59.4616H35.316Z" fill="#01AA90"></path><path fill-rule="evenodd" clip-rule="evenodd" d="M39.9524 17.1645C43.1261 17.1645 45.9727 19.2258 46.3293 23.2107V29.5388C46.3293 33.0191 49.4406 36.0189 52.9209 36.0189C58.8238 36.0189 64.6983 36.0063 70.5937 36.0018C70.5937 36.0012 70.5937 36.0008 70.5937 36.0002C70.5937 30.0694 69.1006 24.4874 66.4703 19.6093C64.7486 21.8932 62.8328 23.9921 61.4531 25.5747C58.2913 21.948 52.3125 15.6089 52.3125 10.547C52.3125 8.94357 52.7258 7.43692 53.451 6.12685C48.3279 3.12746 42.3652 1.40649 36 1.40649C33.7088 1.40649 31.4696 1.62924 29.303 2.05421L29.3207 10.6602C29.3377 14.2359 32.1245 17.1645 35.7338 17.1645H39.9524Z" fill="#01AA90"></path><path fill-rule="evenodd" clip-rule="evenodd" d="M60.5748 55.7314C57.0852 55.567 54.6446 54.8059 53.0437 55.8984C51.2324 57.1344 50.6851 60.3413 54.4039 62.044L56.4818 63.0017H57.6278C60.1815 60.9536 62.4384 58.5508 64.3238 55.8679H63.4571L60.5748 55.7314Z" fill="#01AA90"></path><path fill-rule="evenodd" clip-rule="evenodd" d="M61.4531 1.40625C56.4048 1.40625 52.3125 5.49858 52.3125 10.5469C52.3125 15.6088 58.2913 21.9479 61.4531 25.5746C64.6149 21.9479 70.5938 15.6088 70.5938 10.5469C70.5938 5.49858 66.5013 1.40625 61.4531 1.40625Z" stroke="#322153" stroke-width="3" stroke-miterlimit="2.6131" stroke-linecap="round" stroke-linejoin="round"></path><path d="M63.6368 12.9698C64.9765 11.7633 65.0845 9.69914 63.878 8.3594C62.6715 7.01965 60.6074 6.91164 59.2676 8.11815C57.9279 9.32466 57.8199 11.3888 59.0264 12.7286C60.2329 14.0683 62.297 14.1763 63.6368 12.9698Z" stroke="#322153" stroke-width="3" stroke-miterlimit="2.6131" stroke-linecap="round" stroke-linejoin="round"></path><path d="M66.6394 19.9393C69.2369 24.8944 70.5938 30.4056 70.5938 36.0002C70.5938 55.1058 55.1056 70.594 36 70.594C16.8944 70.594 1.40625 55.1058 1.40625 36.0002C1.40625 16.8947 16.8944 1.40649 36 1.40649C41.9486 1.40649 47.7966 2.94029 52.9793 5.86009" stroke="#322153" stroke-width="3" stroke-miterlimit="2.6131" stroke-linecap="round" stroke-linejoin="round"></path></g><defs><clipPath id="clip0_1_3768"><rect width="72" height="72" fill="white"></rect></clipPath></defs></svg>