<svg xmlns="http://www.w3.org/2000/svg" width="72" height="72" viewBox="0 0 72 72" fill="none"><path d="M46.9666 36.9984L42.4326 41.3866H29.5675L25.0214 36.9867L24.7081 36.9866L1.40625 57.8691C1.40625 59.9273 3.06759 61.5958 5.11692 61.5958H66.8829C68.9323 61.5958 70.5936 59.9273 70.5936 57.8691L47.3033 36.9985L46.9666 36.9984Z" fill="#01AA90"></path><path d="M72 14.131C72 11.3006 69.7046 8.99805 66.8831 8.99805H5.11692C2.29542 8.99805 0 11.3006 0 14.131C0 14.1355 0.000140625 14.1401 0.000140625 14.1446C0.000140625 14.1491 0 14.1538 0 14.1583V57.8689C0 60.6991 2.29542 63.0018 5.11692 63.0018H66.8831C69.7046 63.0018 72 60.6991 72 57.8689V14.1584C72 14.1539 71.9999 14.1493 71.9999 14.1448C71.9999 14.1401 72 14.1356 72 14.131ZM5.11692 11.8105H66.8831C67.9707 11.8105 68.8846 12.573 69.1255 13.5951L41.8635 39.9803H30.1365L2.87452 13.5951C3.11541 12.5732 4.02933 11.8105 5.11692 11.8105ZM69.1875 57.869C69.1875 59.1486 68.1538 60.1895 66.8831 60.1895H5.11692C3.84623 60.1895 2.8125 59.1486 2.8125 57.869V17.449L28.5895 42.3969C28.8517 42.6507 29.2025 42.7926 29.5675 42.7926H42.4326C42.7977 42.7926 43.1483 42.6507 43.4107 42.3969L69.1875 17.449V57.869Z" fill="#322153"></path><path d="M46.017 18.3323H25.9824C25.2058 18.3323 24.5762 18.9619 24.5762 19.7385C24.5762 20.5152 25.2058 21.1448 25.9824 21.1448H46.017C46.7937 21.1448 47.4232 20.5152 47.4232 19.7385C47.4232 18.9619 46.7937 18.3323 46.017 18.3323Z" fill="#322153"></path><path d="M41.7982 23.6101H30.2012C29.4245 23.6101 28.7949 24.2397 28.7949 25.0164C28.7949 25.793 29.4245 26.4226 30.2012 26.4226H41.7982C42.5749 26.4226 43.2045 25.793 43.2045 25.0164C43.2045 24.2397 42.5749 23.6101 41.7982 23.6101Z" fill="#322153"></path></svg>